# xmcd
# 
# Track frame offsets:
#     187
#     6847
#     32112
#     54450
#     73675
#     77425
#     98987
#     114662
#     136440
#     162600
#     187945
#     215050
# 
# Disc length: 2984
# 
# Revision: 1
# Processed by: cddbd v1.5.2PL0 Copyright (c) Steve Scherf et al.
# Submitted via: fre:ac v1.0.31
# 
DISCID=a70ba60c
DTITLE=Masami Tsuchiya - Forest People
DYEAR=1998
DGENRE=Rock
TTITLE0=森のプレリュード
TTITLE1=真夏の夜の森
TTITLE2=森の天使
TTITLE3=雨の森の人
TTITLE4=ガラスの森
TTITLE5=南の森の出来事
TTITLE6=ボジョレー氏の森
TTITLE7=黒い森
TTITLE8=森になる日
TTITLE9=小さな森の人
TTITLE10=ローズマリーの森
TTITLE11=森の妖精のメッセージ
EXTD=YEAR: 1998
EXTT0=
EXTT1=
EXTT2=
EXTT3=
EXTT4=
EXTT5=
EXTT6=
EXTT7=
EXTT8=
EXTT9=
EXTT10=
EXTT11=
PLAYORDER=
